<svg display="none"  xmlns="http://www.w3.org/2000/svg">
	<symbol id="telegram" viewBox="0 0 512 512">
		<path
			d="M256,0C114.615,0,0,114.615,0,256S114.615,512,256,512,512,397.385,512,256,397.385,0,256,0ZM389.059,161.936,343.591,379a16.007,16.007,0,0,1-25.177,9.593l-66.136-48.861-40.068,37.8a5.429,5.429,0,0,1-7.74-.294l-.861-.946,6.962-67.375L336.055,194.266a3.358,3.358,0,0,0-4.061-5.317L171.515,290.519,102.4,267.307a9.393,9.393,0,0,1-.32-17.694L372.5,147.744A12.441,12.441,0,0,1,389.059,161.936Z" />
	</symbol>

	<symbol id="vk" viewBox="0 0 512 512">
		<path
			d="M256,0C114.615,0,0,114.615,0,256S114.615,512,256,512,512,397.385,512,256,397.385,0,256,0ZM392.363,342.9H359.878a23.41,23.41,0,0,1-18.318-8.8c-9.742-12.231-28.934-33.918-49.085-43.233a7.666,7.666,0,0,0-10.916,6.928v32.128A12.974,12.974,0,0,1,268.585,342.9H253.564c-19.534,0-61.6-11.891-95.119-60.719-28.56-41.6-41.291-73.84-48.715-99.98a10.3,10.3,0,0,1,9.922-13.093h32.862a15.226,15.226,0,0,1,14.6,10.861c6.111,20.439,21.939,64.53,49.917,86.486a5.788,5.788,0,0,0,9.371-4.54V210.449c0-10.171-4.408-20.347-11.288-28.3a7.878,7.878,0,0,1,5.946-13.046h50.666a9.838,9.838,0,0,1,9.838,9.837v69.325a5.468,5.468,0,0,0,8.636,4.456c9.3-6.62,17.265-16.4,24.591-27.393,9.22-13.828,20.471-36.686,26.115-48.549A13.457,13.457,0,0,1,353.06,169.1H388.9a8.788,8.788,0,0,1,7.873,12.7c-9.044,18.14-26.659,51.418-43.235,70.942a13.877,13.877,0,0,0,1.623,19.54c10.805,9.232,27.673,26.3,45.859,54.729A10.305,10.305,0,0,1,392.363,342.9Z" />
	</symbol>

	<symbol id="whatsapp" viewBox="0 0 512 512">
		<path d="M263,127.88a120.44,120.44,0,0,0-99.7,188l-11.769,45.405,47.321-11.041A120.432,120.432,0,1,0,263,127.88Zm59.22,186.186c-16.845,7.9-52.014,3.778-89.065-27.93S186.6,220.316,191.8,202.454s25.63-21.162,29.484-20.309,23.126,31.406,20.5,34.97-15.311,16.25-15.311,16.25-.534,12.98,23.284,33.364,36.56,17.851,36.56,17.851,10.574-14.5,13.689-17.639,36.28,11.181,37.718,14.857S339.059,306.169,322.215,314.066Z"/><path d="M256,0C114.615,0,0,114.615,0,256S114.615,512,256,512,512,397.385,512,256,397.385,0,256,0Zm7,393.951a144.986,144.986,0,0,1-68.86-17.282L116.7,396l19.615-75.8A145.656,145.656,0,1,1,263,393.951Z"/>
	</symbol>
</svg>